<?xml version="1.0" encoding="utf-8"?>
<!-- Uploaded to: SVG Repo, www.svgrepo.com, Generator: SVG Repo Mixer Tools -->
<svg fill="#000000" height="800px" width="800px" version="1.1" id="Capa_1" xmlns="http://www.w3.org/2000/svg" xmlns:xlink="http://www.w3.org/1999/xlink" 
	 viewBox="0 0 612 792" enable-background="new 0 0 612 792" xml:space="preserve">
<g>
	<path d="M305.5,90h-48.2c-4.9,0-8.5,4.4-7.6,9.3c3.5,18.9,6,64.6,6,118.1c0,70.3-4.3,127.4-9.6,127.4h70.6c-5.3,0-9.6-57-9.6-127.4
		c0-53.4,2.5-99.1,6-118.1C314.1,94.4,310.5,90,305.5,90z"/>
	<path d="M316.8,375.6h-70.6c5.3,0,9.6,57,9.6,127.4c0,53.4-2.5,99.1-6,118.1c-0.9,4.9,2.7,9.3,7.6,9.3h48.2c4.9,0,8.5-4.4,7.6-9.3
		c-3.5-18.9-6-64.6-6-118.1C307.2,432.6,311.5,375.6,316.8,375.6z"/>
	<path d="M427.9,161.7h-48.2c-4.9,0-8.5,4.4-7.7,9.3c3.5,18.9,6,64.6,6,118.1c0,70.3-4.3,127.4-9.6,127.4h70.6
		c-5.3,0-9.6-57-9.6-127.4c0-53.4,2.5-99.1,6-118.1C436.5,166.1,432.9,161.7,427.9,161.7z"/>
	<path d="M439.2,447.3h-70.6c5.3,0,9.6,57,9.6,127.4c0,53.4-2.5,99.1-6,118.1c-0.9,4.9,2.7,9.3,7.6,9.3H428c4.9,0,8.5-4.4,7.6-9.3
		c-3.5-18.9-6-64.6-6-118.1C429.6,504.3,433.9,447.3,439.2,447.3z"/>
	<path d="M552,217.4c0-53.4,2.5-99.1,6-118.1c0.9-4.9-2.7-9.3-7.7-9.3h-48.2c-4.9,0-8.5,4.4-7.7,9.3c3.5,18.9,6,64.6,6,118.1
		c0,70.3-4.3,127.4-9.6,127.4h70.6C556.3,344.7,552,287.7,552,217.4z"/>
	<path d="M561.6,375.6h-70.6c5.3,0,9.6,57,9.6,127.4c0,53.4-2.5,99.1-6,118.1c-0.9,4.9,2.7,9.3,7.6,9.3h48.2c4.9,0,8.5-4.4,7.7-9.3
		c-3.5-18.9-6-64.6-6-118.1C552,432.6,556.3,375.6,561.6,375.6z"/>
	<ellipse cx="138.6" cy="521.6" rx="88.1" ry="19.1"/>
	<path d="M130.9,415c7.1-7.8,34,5.1,60.1,28.8c26.1,23.7,41.5,49.3,34.4,57.1c-7.1,7.8-34-5.1-60.1-28.8
		C139.3,448.4,123.8,422.8,130.9,415z M165.1,571.3c-26.1,23.7-41.5,49.3-34.4,57.1c7.1,7.8,34-5.1,60.1-28.8
		c26.1-23.7,41.5-49.3,34.4-57.1C218.1,534.7,191.2,547.6,165.1,571.3z"/>
</g>
</svg>