<?xml version="1.0" standalone="no"?><!DOCTYPE svg PUBLIC "-//W3C//DTD SVG 1.1//EN" "http://www.w3.org/Graphics/SVG/1.1/DTD/svg11.dtd"><svg t="1713611221289" class="icon" viewBox="0 0 1024 1024" version="1.1" xmlns="http://www.w3.org/2000/svg" p-id="4329" xmlns:xlink="http://www.w3.org/1999/xlink" width="200" height="200"><path d="M440.610133 638.344533c60.945067 11.400533 101.290667 11.400533 162.235734 0 71.4752-12.714667 97.348267-14.8992 105.250133-8.328533 9.216 7.458133 8.328533 23.2448-2.2016 43.861333-35.515733 69.290667-136.362667 115.746133-219.682133 100.846934-75.434667-13.602133-157.422933-79.803733-157.422934-127.607467 0-24.9856 15.786667-26.299733 111.8208-8.772267m164.437334-257.3824c0 3.072-5.2736 34.645333-11.844267 70.144l-12.288 64.904534h-20.599467c-11.844267 0-21.0432-0.8704-21.0432-1.314134 0-0.8704 5.700267-32.017067 13.141334-69.290666 7.031467-37.256533 13.1584-67.959467 13.1584-68.829867 0-0.443733 8.772267-0.887467 19.746133-0.887467 12.714667 0 19.729067 1.757867 19.729067 5.2736m91.204266-52.6336c-1.314133 3.072-8.772267 32.904533-17.1008 65.792l-14.472533 60.501334h-14.472533c-12.288 0-14.472533-1.757867-14.472534-10.0864 0-10.9568 12.714667-107.434667 15.36-116.206934 1.297067-3.072 10.069333-5.256533 24.558934-5.256533 16.213333 0 21.9136 1.757867 20.599466 5.256533m-270.984533-2.184533c-0.443733 2.184533-3.072 16.213333-6.587733 32.017067-9.216 42.0864-10.9568 39.458133 28.074666 39.458133 39.458133 0 35.498667 3.498667 44.288-45.1584l5.256534-29.3888h21.930666c15.786667 0 21.486933 1.757867 19.729067 5.256533-0.887467 3.072-9.659733 46.4896-18.858667 96.477867l-17.1008 91.204267h-20.616533c-11.8272 0-21.0432-0.8704-21.0432-1.757867 0-0.8704 3.072-17.527467 6.570667-36.386133 3.515733-18.858667 6.587733-35.515733 6.587733-37.717334 0-1.757867-15.786667-3.072-34.645333-3.072-39.458133 0-33.757867-6.570667-44.714667 51.3024l-5.2736 27.630934h-21.486933c-15.786667 0-21.486933-1.757867-20.1728-5.700267 1.314133-2.628267 10.0864-46.045867 19.285333-96.034133l17.117867-91.204267h21.0432c11.400533 0 20.616533 1.314133 20.616533 3.072m41.642667-187.221333C295.031467 165.632 166.980267 295.424 140.253867 469.947733c-25.002667 164.864 78.916267 343.790933 236.765866 408.234667 59.648 24.132267 178.466133 30.2592 243.370667 12.288 109.6192-29.815467 203.4688-108.305067 250.368-210.039467C896.6656 624.315733 904.533333 587.9296 904.533333 520.3968c0-70.144-8.328533-107.434667-38.144-168.823467-61.3888-127.146667-185.480533-207.837867-329.3184-214.4256-24.1152-1.314133-55.688533-0.426667-70.144 1.757867" fill="#FE8A8D" p-id="4330"></path></svg>